<?xml version="1.0" encoding="UTF-8" standalone="no"?>
<svg width="22px" height="21px" viewBox="0 0 22 21" version="1.1" xmlns="http://www.w3.org/2000/svg" xmlns:xlink="http://www.w3.org/1999/xlink">
    <!-- Generator: Sketch 39.1 (31720) - http://www.bohemiancoding.com/sketch -->
    <title>Facebook</title>
    <desc>Created with Sketch.</desc>
    <defs></defs>
    <g id="Page-1" stroke="none" stroke-width="1" fill="none" fill-rule="evenodd">
        <g id="Home-page" transform="translate(-1230.000000, -40.000000)" fill="#FFFFFF">
            <g id="Header-(Home)">
                <g id="Social-icon" transform="translate(1196.000000, 40.000000)">
                    <path d="M44.9919162,0 C39.3413174,0 34.760479,4.57692308 34.760479,10.2226923 C34.760479,15.8657692 39.3413174,20.4426923 44.9919162,20.4426923 C50.6398204,20.4426923 55.2206587,15.8657692 55.2206587,10.2226923 C55.2206587,4.57692308 50.6398204,0 44.9919162,0 L44.9919162,0 Z M49.9688623,14.5438462 C49.9688623,14.8453846 49.8206587,15.1660385 49.5215569,15.1660385 L47.0047904,15.1660385 L47.0047904,11.3968077 L48.2847305,11.3968077 L48.4787425,9.78142308 L47.0047904,9.78142308 L47.0047904,8.81730769 C47.0047904,8.38653846 47.1206587,8.16603846 47.7404192,8.16603846 L48.6215569,8.16603846 L48.6215569,6.75769231 C48.3520958,6.73884615 47.9344311,6.69846154 47.3874251,6.69846154 C46.2502994,6.69846154 45.388024,7.39307692 45.388024,8.66923077 L45.388024,9.78142308 L44.0407186,9.78142308 L44.0407186,11.3968077 L45.388024,11.3968077 L45.388024,15.1660385 L40.7209581,15.1660385 C40.4191617,15.1660385 40.2682635,14.8453846 40.2682635,14.5438462 L40.2682635,5.75076923 C40.2682635,5.44923077 40.4191617,5.2045 40.7209581,5.2045 L49.5215569,5.2045 C49.8206587,5.2045 49.9688623,5.44923077 49.9688623,5.75076923 L49.9688623,14.5438462 L49.9688623,14.5438462 Z" id="Facebook"></path>
                </g>
            </g>
        </g>
    </g>
</svg>