<?xml version="1.0" encoding="UTF-8" standalone="no"?>
<svg width="21px" height="21px" viewBox="0 0 21 21" version="1.1" xmlns="http://www.w3.org/2000/svg" xmlns:xlink="http://www.w3.org/1999/xlink">
    <!-- Generator: Sketch 39.1 (31720) - http://www.bohemiancoding.com/sketch -->
    <title>Linkedin</title>
    <desc>Created with Sketch.</desc>
    <defs></defs>
    <g id="Page-1" stroke="none" stroke-width="1" fill="none" fill-rule="evenodd">
        <g id="Home-page" transform="translate(-1196.000000, -40.000000)" fill="#FFFFFF">
            <g id="Header-(Home)">
                <g id="Social-icon" transform="translate(1196.000000, 40.000000)">
                    <path d="M10.2314371,0.538461538 C4.58083832,0.538461538 0,5.11538462 0,10.7611538 C0,16.4042308 4.58083832,20.9811538 10.2314371,20.9811538 C15.8793413,20.9811538 20.4601796,16.4042308 20.4601796,10.7611538 C20.4601796,5.11538462 15.8793413,0.538461538 10.2314371,0.538461538 L10.2314371,0.538461538 Z M5.77724551,9.11884615 L7.66347305,9.11884615 L7.66347305,15.3111538 L5.77724551,15.3111538 L5.77724551,9.11884615 Z M6.60988024,8.58038462 L6.59640719,8.58038462 C5.89311377,8.58038462 5.44041916,8.04461538 5.44041916,7.44961538 C5.44041916,6.84384615 5.90658683,6.35115385 6.62335329,6.35115385 C7.33742515,6.35115385 7.77664671,6.86 7.79281437,7.46576923 C7.79281437,8.06076923 7.33742515,8.58038462 6.60988024,8.58038462 L6.60988024,8.58038462 Z M15.4778443,15.3111538 L13.0526946,15.3111538 L13.0526946,12.1746154 C13.0526946,11.3426923 12.7751497,10.7773077 12.0179641,10.7773077 C11.4413174,10.7773077 11.1071856,11.1596154 10.9562874,11.5284615 C10.8997006,11.6603846 10.897006,11.8434615 10.897006,12.0292308 L10.897006,15.3111538 L8.81137725,15.3111538 C8.81137725,15.3111538 8.83832335,9.65730769 8.81137725,9.11884615 L10.897006,9.11884615 L10.897006,10.1769231 C11.1664671,9.75692308 11.8131737,9.15653846 12.9233533,9.15653846 C14.3002994,9.15653846 15.4778443,10.0369231 15.4778443,11.9376923 L15.4778443,15.3111538 L15.4778443,15.3111538 Z" id="Linkedin"></path>
                </g>
            </g>
        </g>
    </g>
</svg>