<?xml version="1.0" encoding="UTF-8" standalone="no"?>
<svg width="21px" height="21px" viewBox="0 0 21 21" version="1.1" xmlns="http://www.w3.org/2000/svg" xmlns:xlink="http://www.w3.org/1999/xlink">
    <!-- Generator: Sketch 39.1 (31720) - http://www.bohemiancoding.com/sketch -->
    <title>Twitter</title>
    <desc>Created with Sketch.</desc>
    <defs></defs>
    <g id="Page-1" stroke="none" stroke-width="1" fill="none" fill-rule="evenodd">
        <g id="Home-page" transform="translate(-1265.000000, -40.000000)" fill="#FFFFFF">
            <g id="Header-(Home)">
                <g id="Social-icon" transform="translate(1196.000000, 40.000000)">
                    <path d="M79.7523952,0.538461538 C74.1017964,0.538461538 69.5209581,5.11538462 69.5209581,10.7611538 C69.5209581,16.4042308 74.1017964,20.9811538 79.7523952,20.9811538 C85.4002994,20.9811538 89.9811377,16.4042308 89.9811377,10.7611538 C89.9811377,5.11538462 85.4002994,0.538461538 79.7523952,0.538461538 L79.7523952,0.538461538 Z M83.6407186,8.59384615 C83.6434132,8.68538462 83.6461078,8.77692308 83.6461078,8.86846154 C83.6461078,11.6711538 81.5631737,14.9046154 77.7556886,14.9046154 C76.5862275,14.9046154 75.4976048,14.5519231 74.5814371,13.9515385 C74.7431138,13.9703846 74.907485,13.9811538 75.0745509,13.9811538 C76.0446108,13.9811538 76.9392216,13.6419231 77.6479042,13.0738462 C76.7398204,13.055 75.9772455,12.4438462 75.7131737,11.6011538 C75.8398204,11.6253846 75.9691617,11.6388462 76.1011976,11.6388462 C76.292515,11.6388462 76.4973054,11.6119231 76.6697605,11.5634615 C75.7212575,11.3696154 75.0287425,10.5107692 75.0287425,9.48230769 L75.0287425,9.45807692 C75.2982036,9.61423077 75.6080838,9.71115385 75.9476048,9.72192308 C75.3898204,9.34230769 75.0152695,8.69076923 75.0152695,7.95576923 C75.0152695,7.56807692 75.1122754,7.20192308 75.2901198,6.88961538 C76.3113772,8.17384615 77.8338323,9.01653846 79.5556886,9.10538462 C79.5179641,8.94923077 79.5004491,8.78769231 79.5004491,8.62346154 C79.5004491,7.45230769 80.4265868,6.50192308 81.5693713,6.50192308 C82.1648802,6.50192308 82.7032635,6.75769231 83.080509,7.16961538 C83.5520659,7.07538462 83.993982,6.90038462 84.395479,6.65538462 C84.2418862,7.15076923 83.9128743,7.56807692 83.4844311,7.82923077 C83.9047904,7.77807692 84.3035928,7.665 84.6727545,7.49538462 C84.3979042,7.92076923 84.0449102,8.295 83.6407186,8.59384615 L83.6407186,8.59384615 Z" id="Twitter"></path>
                </g>
            </g>
        </g>
    </g>
</svg>